<svg xmlns="http://www.w3.org/2000/svg" xmlns:xlink="http://www.w3.org/1999/xlink" version="1.1" x="0px" y="0px" viewBox="0 0 100 125" style="enable-background:new 0 0 100 100;" xml:space="preserve">
  <style type="text/css">
    .st0 { fill: #ffffff; fill-rule: evenodd; clip-rule: evenodd; }
  </style>
  <g>
    <path class="st0" d="M51.4887733,55.8896561c-0.6622086,0.2205505-1.2135811,0.330822-1.8758316,0.330822   s-1.3238487-0.1102753-1.9860573-0.330822l-24.1632442-7.6134148v13.9024124   c0,5.2959709,11.8061275,9.5994759,26.3706036,9.5994759c14.5649109,0,26.3706055-4.3029404,26.3706055-9.5994759   L76.203743,48.0556488L51.4887733,55.8896561z"/>
    <path class="st0" d="M96.7269363,33.712471L50.6063995,19.0369167c-0.2205505-0.1102753-0.4411049-0.1102753-0.5519257,0L3.16221,33.712471   c-0.4416571,0.1102753-0.6622088,0.4411049-0.6622088,0.8827629v0.5519257c0,0.4411049,0.2205517,0.7724762,0.6622088,0.8827591   l13.4613647,4.3029404c-1.9860592,3.4201317-3.1996832,7.9442329-3.5310717,13.6818161   c-1.6552382,0.8822098-2.8688612,2.6477013-2.8688612,4.7439842c0,1.6552391,0.7724771,3.1996841,1.9860582,4.1927109   L9.4512072,78.0667038c0,0.1102753-0.1102743,0.2205505-0.1102743,0.3308182c0,1.4340744,2.7584944,2.6482697,6.0684032,2.6482697   c3.4201336,0,6.0684032-1.2135849,6.0684032-2.6482697c0-0.1102753,0-0.2205505-0.1102753-0.3308182L19.0505848,62.730072   c1.1032982-0.9930267,1.8758316-2.4271049,1.8758316-3.9721184c0-1.8758316-0.882761-3.4201355-2.3168793-4.413166   c0.4411049-5.517128,1.5450134-9.4892426,3.5310707-12.2471733l27.252985,8.6064453   c0.2205467,0.1102753,0.4411011,0.1102753,0.5519218,0l46.8922691-14.6755562   C97.2788849,35.9182281,97.5,35.5873985,97.5,35.1457443v-0.5519257c-0.1108322-0.441658-0.3313751-0.7724762-0.7730331-0.8827629   L96.7269363,33.712471z"/>
  </g>
</svg>
